# xmcd CD database file
#
# Track frame offsets:
#	150
#	12187
#	25510
#	39314
#	50976
#	63040
#	74340
#	89124
#	100275
#	112820
#	126189
#	139109
#	154829
#	166265
#	179865
#	191555
#	204351
#	217358
#	230006
#	244519
#	255545
#	268447
#	281773
#	294333
#	307140
#	321840
#	335469
#	344488
#
# Disc length: 4788 seconds
#
# Revision: 0
# Processed by: cddbd v1.4PL0 Copyright (c) Steve Scherf et al.
# Submitted via: CDex 1.50
#
DISCID=b612b21c
DTITLE=Robert Parker/Billie Holiday, Lena Horne, Ella Fitzgerald, Sarah Vaughan - The Golden Years Vol 8 The Blues 1923-1933/The Four Queens Of Jazz
DYEAR=1900
DGENRE=Blues
TTITLE0=Give Me A Break Blues/Ida Cox
TTITLE1=Nothin' But Blues/Cleo Gibson
TTITLE2=Barrel House Blues/Rosa Henderson
TTITLE3=Midnight Mama/Frances Hereford
TTITLE4=Kansas City Blues/Memphis Jug Band
TTITLE5=Prove It On Me Blues/Ma Rainey
TTITLE6=Be On Your Merry Way/Issie Ringgold
TTITLE7=Blue Yodel No 9/Jimmie Rodgers
TTITLE8=Nobody Knows You When You're Down And Out/Bessie Smith
TTITLE9=Jenny's Ball/Mamie Smith
TTITLE10=Moaning The Blues/Victoria Spivey
TTITLE11=Organ Grinder/Eva Taylor
TTITLE12=Get Up Off Your Knees/Ethel Waters
TTITLE13=I've Got What It Takes/Margaret Webster
TTITLE14=That Things Done Been Put On Me/Margaret Whitmire
TTITLE15=He Used To Be Your Man/Lena Wilson
TTITLE16=The Man I Love
TTITLE17=My Melancholy Baby
TTITLE18=Prisoner Of Love
TTITLE19=Nice Work If You Can Get It
TTITLE20=I'll Never Be The Same
TTITLE21=East Of The Sun
TTITLE22=What A Little Moonlight Can Do
TTITLE23=Ain't Misbehavin'
TTITLE24=Out of Nowhere
TTITLE25=All My Life
TTITLE26=I'm Gonna Lock My Heart (And Throw Away The Key)
TTITLE27=Goodnight My Love
EXTD=
EXTT0=
EXTT1=
EXTT2=
EXTT3=
EXTT4=
EXTT5=
EXTT6=
EXTT7=
EXTT8=
EXTT9=
EXTT10=
EXTT11=
EXTT12=
EXTT13=
EXTT14=
EXTT15=
EXTT16=
EXTT17=
EXTT18=
EXTT19=
EXTT20=
EXTT21=
EXTT22=
EXTT23=
EXTT24=
EXTT25=
EXTT26=
EXTT27=
PLAYORDER=
